<?xml version="1.0" encoding="UTF-8" standalone="no"?>
<!DOCTYPE svg PUBLIC "-//W3C//DTD SVG 1.1//EN"
 "http://www.w3.org/Graphics/SVG/1.1/DTD/svg11.dtd">
<!-- Generated by graphviz version 2.47.0 (20210316.0004)
 -->
<!-- Title: dependencies Pages: 1 -->
<svg width="652pt" height="358pt"
 viewBox="0.00 0.00 652.00 358.00" xmlns="http://www.w3.org/2000/svg" xmlns:xlink="http://www.w3.org/1999/xlink">
<g id="graph0" class="graph" transform="scale(1 1) rotate(0) translate(4 354)">
<title>dependencies</title>
<polygon fill="white" stroke="transparent" points="-4,4 -4,-354 648,-354 648,4 -4,4"/>
<text text-anchor="start" x="301.01" y="-42.4" font-family="Times-12" font-weight="bold" font-size="14.00">Legend</text>
<polygon fill="#ffffb3" stroke="transparent" points="88,-10 88,-30 108,-30 108,-10 88,-10"/>
<text text-anchor="start" x="111.63" y="-15.4" font-family="Times-12" font-size="14.00"> &#160;Declarations</text>
<polygon fill="#8dd3c7" stroke="transparent" points="201,-10 201,-30 221,-30 221,-10 201,-10"/>
<text text-anchor="start" x="224.73" y="-15.4" font-family="Times-12" font-size="14.00"> &#160;Module</text>
<polygon fill="#80b1d3" stroke="transparent" points="287,-10 287,-30 307,-30 307,-10 287,-10"/>
<text text-anchor="start" x="310.78" y="-15.4" font-family="Times-12" font-size="14.00"> &#160;Bootstrap</text>
<polygon fill="#fdb462" stroke="transparent" points="384,-10 384,-30 404,-30 404,-10 384,-10"/>
<text text-anchor="start" x="407.67" y="-15.4" font-family="Times-12" font-size="14.00"> &#160;Providers</text>
<polygon fill="#fb8072" stroke="transparent" points="480,-10 480,-30 500,-30 500,-10 480,-10"/>
<text text-anchor="start" x="503.73" y="-15.4" font-family="Times-12" font-size="14.00"> &#160;Exports</text>
<g id="clust7" class="cluster">
<title>cluster_AuthModule</title>
<polygon fill="none" stroke="black" stroke-dasharray="1,5" points="486,-138 486,-342 636,-342 636,-138 486,-138"/>
</g>
<g id="clust10" class="cluster">
<title>cluster_AuthModule_exports</title>
<polygon fill="none" stroke="black" points="501,-282 501,-334 607,-334 607,-282 501,-282"/>
</g>
<g id="clust12" class="cluster">
<title>cluster_AuthModule_providers</title>
<polygon fill="none" stroke="black" points="494,-146 494,-198 628,-198 628,-146 494,-146"/>
</g>
<g id="clust19" class="cluster">
<title>cluster_UsersModule</title>
<polygon fill="none" stroke="black" stroke-dasharray="1,5" points="322,-70 322,-274 478,-274 478,-70 322,-70"/>
</g>
<g id="clust24" class="cluster">
<title>cluster_UsersModule_providers</title>
<polygon fill="none" stroke="black" points="330,-78 330,-130 470,-130 470,-78 330,-78"/>
</g>
<g id="clust22" class="cluster">
<title>cluster_UsersModule_exports</title>
<polygon fill="none" stroke="black" points="346,-214 346,-266 456,-266 456,-214 346,-214"/>
</g>
<g id="clust13" class="cluster">
<title>cluster_PostsModule</title>
<polygon fill="none" stroke="black" stroke-dasharray="1,5" points="8,-138 8,-342 160,-342 160,-138 8,-138"/>
</g>
<g id="clust16" class="cluster">
<title>cluster_PostsModule_exports</title>
<polygon fill="none" stroke="black" points="44,-282 44,-334 152,-334 152,-282 44,-282"/>
</g>
<g id="clust18" class="cluster">
<title>cluster_PostsModule_providers</title>
<polygon fill="none" stroke="black" points="16,-146 16,-198 152,-198 152,-146 16,-146"/>
</g>
<g id="clust1" class="cluster">
<title>cluster_AppModule</title>
<polygon fill="none" stroke="black" stroke-dasharray="1,5" points="168,-206 168,-334 314,-334 314,-206 168,-206"/>
</g>
<g id="clust6" class="cluster">
<title>cluster_AppModule_providers</title>
<polygon fill="none" stroke="black" points="176,-214 176,-266 306,-266 306,-214 176,-214"/>
</g>
<!-- AuthModule -->
<g id="node1" class="node">
<title>AuthModule</title>
<polygon fill="#8dd3c7" stroke="black" points="597.55,-258 594.55,-262 573.55,-262 570.55,-258 510.45,-258 510.45,-222 597.55,-222 597.55,-258"/>
<text text-anchor="middle" x="554" y="-235.8" font-family="Times,serif" font-size="14.00">AuthModule</text>
</g>
<!-- AppModule -->
<g id="node4" class="node">
<title>AppModule</title>
<polygon fill="#8dd3c7" stroke="black" points="293.66,-326 290.66,-330 269.66,-330 266.66,-326 210.34,-326 210.34,-290 293.66,-290 293.66,-326"/>
<text text-anchor="middle" x="252" y="-303.8" font-family="Times,serif" font-size="14.00">AppModule</text>
</g>
<!-- AuthModule&#45;&gt;AppModule -->
<g id="edge1" class="edge">
<title>AuthModule&#45;&gt;AppModule</title>
<path fill="none" stroke="black" d="M510.31,-240C507.33,-240 505.48,-240 505.48,-240 505.48,-240 505.48,-314 505.48,-314 505.48,-314 303.86,-314 303.86,-314"/>
<polygon fill="black" stroke="black" points="303.86,-310.5 293.86,-314 303.86,-317.5 303.86,-310.5"/>
</g>
<!-- AuthService  -->
<g id="node6" class="node">
<title>AuthService </title>
<polygon fill="#fb8072" stroke="black" points="598.98,-326 509.02,-326 509.02,-290 598.98,-290 598.98,-326"/>
<text text-anchor="middle" x="554" y="-303.8" font-family="Times,serif" font-size="14.00">AuthService </text>
</g>
<!-- AuthModule&#45;&gt;AuthService  -->
<g id="edge5" class="edge">
<title>AuthModule&#45;&gt;AuthService </title>
<path fill="none" stroke="black" stroke-dasharray="5,2" d="M554,-258.22C554,-258.22 554,-279.73 554,-279.73"/>
<polygon fill="black" stroke="black" points="550.5,-279.73 554,-289.73 557.5,-279.73 550.5,-279.73"/>
</g>
<!-- PostsModule -->
<g id="node2" class="node">
<title>PostsModule</title>
<polygon fill="#8dd3c7" stroke="black" points="146.61,-258 143.61,-262 122.61,-262 119.61,-258 57.39,-258 57.39,-222 146.61,-222 146.61,-258"/>
<text text-anchor="middle" x="102" y="-235.8" font-family="Times,serif" font-size="14.00">PostsModule</text>
</g>
<!-- PostsModule&#45;&gt;AppModule -->
<g id="edge2" class="edge">
<title>PostsModule&#45;&gt;AppModule</title>
<path fill="none" stroke="black" d="M146.58,-246C160.26,-246 171.77,-246 171.77,-246 171.77,-246 171.77,-308 171.77,-308 171.77,-308 200.01,-308 200.01,-308"/>
<polygon fill="black" stroke="black" points="200.01,-311.5 210.01,-308 200.01,-304.5 200.01,-311.5"/>
</g>
<!-- PostsService  -->
<g id="node8" class="node">
<title>PostsService </title>
<polygon fill="#fb8072" stroke="black" points="143.54,-326 52.46,-326 52.46,-290 143.54,-290 143.54,-326"/>
<text text-anchor="middle" x="98" y="-303.8" font-family="Times,serif" font-size="14.00">PostsService </text>
</g>
<!-- PostsModule&#45;&gt;PostsService  -->
<g id="edge8" class="edge">
<title>PostsModule&#45;&gt;PostsService </title>
<path fill="none" stroke="black" stroke-dasharray="5,2" d="M100.48,-258.22C100.48,-258.22 100.48,-279.73 100.48,-279.73"/>
<polygon fill="black" stroke="black" points="96.98,-279.73 100.48,-289.73 103.98,-279.73 96.98,-279.73"/>
</g>
<!-- UsersModule -->
<g id="node3" class="node">
<title>UsersModule</title>
<polygon fill="#8dd3c7" stroke="black" points="433.92,-190 430.92,-194 409.92,-194 406.92,-190 342.08,-190 342.08,-154 433.92,-154 433.92,-190"/>
<text text-anchor="middle" x="388" y="-167.8" font-family="Times,serif" font-size="14.00">UsersModule</text>
</g>
<!-- UsersModule&#45;&gt;PostsModule -->
<g id="edge7" class="edge">
<title>UsersModule&#45;&gt;PostsModule</title>
<path fill="none" stroke="black" d="M342.24,-172C275.46,-172 159.16,-172 159.16,-172 159.16,-172 159.16,-234 159.16,-234 159.16,-234 156.76,-234 156.76,-234"/>
<polygon fill="black" stroke="black" points="156.76,-230.5 146.76,-234 156.76,-237.5 156.76,-230.5"/>
</g>
<!-- UsersModule&#45;&gt;AppModule -->
<g id="edge3" class="edge">
<title>UsersModule&#45;&gt;AppModule</title>
<path fill="none" stroke="black" d="M348.31,-190.08C348.31,-225.8 348.31,-302 348.31,-302 348.31,-302 303.68,-302 303.68,-302"/>
<polygon fill="black" stroke="black" points="303.68,-298.5 293.68,-302 303.68,-305.5 303.68,-298.5"/>
</g>
<!-- UsersService  -->
<g id="node10" class="node">
<title>UsersService </title>
<polygon fill="#fb8072" stroke="black" points="447.85,-258 354.15,-258 354.15,-222 447.85,-222 447.85,-258"/>
<text text-anchor="middle" x="401" y="-235.8" font-family="Times,serif" font-size="14.00">UsersService </text>
</g>
<!-- UsersModule&#45;&gt;UsersService  -->
<g id="edge10" class="edge">
<title>UsersModule&#45;&gt;UsersService </title>
<path fill="none" stroke="black" stroke-dasharray="5,2" d="M394.02,-190.22C394.02,-190.22 394.02,-211.73 394.02,-211.73"/>
<polygon fill="black" stroke="black" points="390.52,-211.73 394.02,-221.73 397.52,-211.73 390.52,-211.73"/>
</g>
<!-- AppService -->
<g id="node5" class="node">
<title>AppService</title>
<ellipse fill="#fdb462" stroke="black" cx="241" cy="-240" rx="56.74" ry="18"/>
<text text-anchor="middle" x="241" y="-235.8" font-family="Times,serif" font-size="14.00">AppService</text>
</g>
<!-- AppService&#45;&gt;AppModule -->
<g id="edge4" class="edge">
<title>AppService&#45;&gt;AppModule</title>
<path fill="none" stroke="black" d="M252,-257.87C252,-257.87 252,-279.54 252,-279.54"/>
<polygon fill="black" stroke="black" points="248.5,-279.54 252,-289.54 255.5,-279.54 248.5,-279.54"/>
</g>
<!-- AuthService -->
<g id="node7" class="node">
<title>AuthService</title>
<ellipse fill="#fdb462" stroke="black" cx="561" cy="-172" rx="59.11" ry="18"/>
<text text-anchor="middle" x="561" y="-167.8" font-family="Times,serif" font-size="14.00">AuthService</text>
</g>
<!-- AuthService&#45;&gt;AuthModule -->
<g id="edge6" class="edge">
<title>AuthService&#45;&gt;AuthModule</title>
<path fill="none" stroke="black" d="M554,-190.22C554,-190.22 554,-211.73 554,-211.73"/>
<polygon fill="black" stroke="black" points="550.5,-211.73 554,-221.73 557.5,-211.73 550.5,-211.73"/>
</g>
<!-- PostsService -->
<g id="node9" class="node">
<title>PostsService</title>
<ellipse fill="#fdb462" stroke="black" cx="84" cy="-172" rx="60.27" ry="18"/>
<text text-anchor="middle" x="84" y="-167.8" font-family="Times,serif" font-size="14.00">PostsService</text>
</g>
<!-- PostsService&#45;&gt;PostsModule -->
<g id="edge9" class="edge">
<title>PostsService&#45;&gt;PostsModule</title>
<path fill="none" stroke="black" d="M100.91,-189.51C100.91,-189.51 100.91,-211.84 100.91,-211.84"/>
<polygon fill="black" stroke="black" points="97.41,-211.84 100.91,-221.84 104.41,-211.84 97.41,-211.84"/>
</g>
<!-- UsersService -->
<g id="node11" class="node">
<title>UsersService</title>
<ellipse fill="#fdb462" stroke="black" cx="400" cy="-104" rx="61.95" ry="18"/>
<text text-anchor="middle" x="400" y="-99.8" font-family="Times,serif" font-size="14.00">UsersService</text>
</g>
<!-- UsersService&#45;&gt;UsersModule -->
<g id="edge11" class="edge">
<title>UsersService&#45;&gt;UsersModule</title>
<path fill="none" stroke="black" d="M388,-121.87C388,-121.87 388,-143.54 388,-143.54"/>
<polygon fill="black" stroke="black" points="384.5,-143.54 388,-153.54 391.5,-143.54 384.5,-143.54"/>
</g>
</g>
</svg>
